<svg width="16" height="17" viewBox="0 0 16 17" fill="none" xmlns="http://www.w3.org/2000/svg">
<path d="M0.1875 8.34667H4.16563C4.19375 7.15354 4.38125 5.98913 4.71875 4.87576C3.7375 4.6014 2.78437 4.20263 1.87812 3.67944C0.875 4.97146 0.25 6.58569 0.1875 8.34667Z" fill="#61697C"/>
<path d="M4.16563 8.94641H0.1875C0.25 10.7074 0.875 12.3216 1.87812 13.6104C2.78125 13.0873 3.7375 12.6885 4.71875 12.4141C4.38125 11.3071 4.19063 10.1395 4.16563 8.94641Z" fill="#61697C"/>
<path d="M7.70629 8.94641H4.75629C4.78441 10.0885 4.96566 11.2051 5.29379 12.2706C6.08754 12.0919 6.89691 11.9898 7.70629 11.9707V8.94641Z" fill="#61697C"/>
<path d="M7.70629 8.34668V5.3224C6.89691 5.30326 6.08754 5.20117 5.29379 5.02252C4.96566 6.08804 4.78129 7.2046 4.75629 8.34668H7.70629Z" fill="#61697C"/>
<path d="M7.7063 12.5736C6.96255 12.5927 6.2188 12.6821 5.48755 12.8448C5.98755 14.2197 6.73442 15.4958 7.7063 16.6187V12.5736Z" fill="#61697C"/>
<path d="M10.7 5.02252C9.90933 5.20117 9.10308 5.30007 8.2937 5.31921V8.34349H11.2375C11.2125 7.22374 11.0312 6.10399 10.7 5.02252Z" fill="#61697C"/>
<path d="M8.2937 4.71883C9.03745 4.69969 9.77808 4.61036 10.5062 4.45086C10.0156 3.09503 9.27808 1.81258 8.2937 0.67688V4.71883Z" fill="#61697C"/>
<path d="M7.7063 4.71891V0.673767C6.73442 1.79671 5.98755 3.07278 5.48755 4.44775C6.21567 4.60726 6.95942 4.69977 7.7063 4.71891Z" fill="#61697C"/>
<path d="M4.90629 4.30387C5.36254 3.02461 6.02504 1.8251 6.87191 0.746826C5.06566 1.0148 3.45941 1.91124 2.27191 3.21283C3.11254 3.68817 3.99691 4.05185 4.90629 4.30387Z" fill="#61697C"/>
<path d="M4.90629 12.9883C3.99691 13.2372 3.11254 13.6009 2.27191 14.0762C3.45629 15.3778 5.06566 16.2774 6.87191 16.5422C6.02504 15.4671 5.36566 14.2676 4.90629 12.9883Z" fill="#61697C"/>
<path d="M8.2937 12.5736V16.6187C9.27808 15.483 10.0156 14.2006 10.5062 12.8448C9.77808 12.6853 9.03745 12.5927 8.2937 12.5736Z" fill="#61697C"/>
<path d="M11.0844 12.9883C10.6344 14.2517 9.98125 15.4543 9.125 16.5454C10.9313 16.2774 12.5406 15.381 13.725 14.0794C12.8844 13.6009 11.9969 13.2372 11.0844 12.9883Z" fill="#61697C"/>
<path d="M11.0844 4.30387C11.9969 4.05185 12.8844 3.68817 13.7282 3.21283C12.5407 1.91124 10.9344 1.01161 9.12817 0.746826C9.98442 1.83787 10.6344 3.04375 11.0844 4.30387Z" fill="#61697C"/>
<path d="M8.2937 8.94643V11.9707C9.09995 11.9899 9.9062 12.0887 10.7 12.2674C11.0312 11.1859 11.2125 10.0662 11.2406 8.94324H8.2937V8.94643Z" fill="#61697C"/>
<path d="M15.8125 8.94641H11.8312C11.8031 10.1172 11.6187 11.2848 11.275 12.4141C12.2593 12.6885 13.2156 13.0873 14.1218 13.6104C15.125 12.3216 15.75 10.7074 15.8125 8.94641Z" fill="#61697C"/>
<path d="M11.8312 8.34665H15.8125C15.75 6.58568 15.125 4.97145 14.1218 3.68262C13.2156 4.20581 12.2593 4.60777 11.275 4.87893C11.6156 6.00506 11.8031 7.17267 11.8312 8.34665Z" fill="#61697C"/>
</svg>
